<svg xmlns="http://www.w3.org/2000/svg" viewBox="0 0 64 80" x="0px" y="0px"><title>graduation cap</title><g data-name="graduation cap"><polygon points="59.022 20 32 4.159 4.978 20 32 35.841 59.022 20"/><path d="M32,38a1,1,0,0,1-.506-.138L14,27.607v4.842L32,43.817,50,32.449V27.607L32.506,37.862A1,1,0,0,1,32,38Z"/><path d="M9,44a5.006,5.006,0,0,0-5,5V59a1,1,0,0,0,1,1h8a1,1,0,0,0,1-1V49A5.006,5.006,0,0,0,9,44Zm1,10H8V46h2Z"/><path d="M61.707,41.293,59,38.586V23.76H57V38.586l-2.707,2.707A1,1,0,0,0,54,42v8a1,1,0,0,0,1.707.707L58,48.414l2.293,2.293A1,1,0,0,0,61,51a.987.987,0,0,0,.383-.076A1,1,0,0,0,62,50V42A1,1,0,0,0,61.707,41.293ZM60,47.586l-1.293-1.293a1,1,0,0,0-1.414,0L56,47.586V42.414l2-2,2,2Z"/><path d="M31,56a4,4,0,0,1-8,0V45a3,3,0,0,0-3-3H18V40a2,2,0,0,0-2-2H10a2,2,0,0,0-2,2v2h2V40h6v2a2,2,0,0,0,2,2h2a1,1,0,0,1,1,1V56a6,6,0,0,0,12,0V46H31Z"/></g><text x="0" y="79" fill="#000000" font-size="5px" font-weight="bold" font-family="'Helvetica Neue', Helvetica, Arial-Unicode, Arial, Sans-serif">Created by Phonlaphat Thongsriphong</text><text x="0" y="84" fill="#000000" font-size="5px" font-weight="bold" font-family="'Helvetica Neue', Helvetica, Arial-Unicode, Arial, Sans-serif">from the Noun Project</text></svg>